<?xml version="1.0" encoding="UTF-8"?><svg id="_圖層_2" xmlns="http://www.w3.org/2000/svg" viewBox="0 0 150 150"><circle cx="75" cy="75" r="75" fill="#ec2127"/><g id="layer1"><g id="g6473"><g id="g170"><path id="path172" d="m60.07,62.04h-1.36c-7.71,0-13.94,6.23-13.94,13.95v19.88h10.04v-19.4c0-2.91,2.34-5.23,5.26-5.23h5.87v-9.2s-5.87,0-5.87,0Zm50.55,13.24c.11-3.13,3-5.67,6.58-5.67s6.55,2.51,6.61,5.67h-13.18Zm22.94,4.69c-.08-10.48-5.77-18.72-16.36-18.72-9.08,0-16.43,7.34-16.43,17.46,0,10.91,6.67,17.37,16.5,17.56,6.38,0,11.97-3.58,14.81-8.84l-9.19-2.4c-1.12,1.67-3.26,2.83-5.7,2.83-3.58,0-6.47-2.57-6.58-5.68h22.94c.02-.49,0-1.68,0-2.2m-44.7,2.25c0,2.87-2.34,5.25-5.27,5.25s-5.21-2.38-5.21-5.25v-15.33c0-2.67-2.16-4.85-4.86-4.85h-5.23v18.86c0,8.49,4.59,15.36,15.3,15.36s15.32-6.87,15.32-15.36v-18.86h-10.05v20.18m-57.63-28.49h-10.04v8.31h-4.74v9.2h4.74v10.79c0,8.46,6.84,13.84,15.3,13.84h5.93v-8.81h-5.94c-2.89,0-5.24-2.35-5.24-5.24v-10.58l6.58-.02c2.56-.11,4.6-2.21,4.6-4.82v-4.36h-11.18v-8.31" fill="#fff" fill-rule="evenodd"/></g></g></g></svg>