<?xml version="1.0" encoding="UTF-8"?><svg xmlns="http://www.w3.org/2000/svg" viewBox="0 0 198.43 198.43"><g id="_藍色"><rect x="0" y="0" width="198.43" height="198.43" rx="99.21" ry="99.21" fill="#00a3e0"/></g><g id="_白色"><g opacity=".4"><path d="m99.21,8c50.29,0,91.21,40.92,91.21,91.21s-40.92,91.21-91.21,91.21S8,149.51,8,99.21,48.92,8,99.21,8M99.21,0h0C44.42,0,0,44.42,0,99.21H0C0,154.01,44.42,198.43,99.21,198.43h0c54.79,0,99.21-44.42,99.21-99.21h0C198.43,44.42,154.01,0,99.21,0h0Z" fill="#fff"/></g><path d="m66.48,79.91h-11.04l-1.93,6.24h-8.61l12.25-33.41h7.57l12.35,33.41h-8.65l-1.95-6.24Zm-9.11-6.22h7.18l-3.6-11.59-3.58,11.59Z" fill="#fff"/><path d="m105.81,58.95h-10.03v27.19h-8.05v-27.19h-9.85v-6.22h27.93v6.22Z" fill="#fff"/><path d="m122.61,52.74l7.46,23.25,7.44-23.25h10.6v33.41h-8.08v-7.8l.78-15.97-8.08,23.78h-5.32l-8.1-23.8.78,16v7.8h-8.06v-33.41h10.58Z" fill="#fff"/><path d="m84.6,104.69v35.69h-6.36v-35.69h-32.82v36.8c0,5.63,4.56,10.19,10.19,10.19h25.16c5.63,0,10.19-4.56,10.19-10.19v-36.8h-6.37Z" fill="#fff"/></g><g id="_黑色"><g opacity=".4"><rect x="111.01" y="100.72" width="38.38" height="3.96" rx="1.98" ry="1.98"/></g><g opacity=".4"><rect x="112.12" y="114.07" width="6.7" height="6.7"/><rect x="126.85" y="114.07" width="6.7" height="6.7"/><rect x="141.58" y="114.07" width="6.7" height="6.7"/><rect x="112.12" y="128.8" width="6.7" height="6.7"/><rect x="126.85" y="128.8" width="6.7" height="6.7"/><rect x="141.58" y="128.8" width="6.7" height="6.7"/><rect x="112.12" y="143.53" width="6.7" height="6.7"/><rect x="126.85" y="143.53" width="6.7" height="6.7"/><rect x="141.58" y="143.53" width="6.7" height="6.7"/></g><g opacity=".4"><rect x="39.72" y="100.72" width="56.94" height="3.96" rx="1.98" ry="1.98"/></g></g></svg>