<?xml version="1.0" encoding="UTF-8"?><svg id="_圖層_2" xmlns="http://www.w3.org/2000/svg" viewBox="0 0 150 150"><circle cx="75" cy="75" r="75" fill="#f7931a"/><path d="m110.69,65.69c1.49-9.98-6.11-15.35-16.5-18.93l3.37-13.52-8.23-2.05-3.28,13.16c-2.16-.54-4.39-1.05-6.59-1.55l3.31-13.25-8.23-2.05-3.37,13.52c-1.79-.41-3.55-.81-5.26-1.24v-.04s-11.34-2.83-11.34-2.83l-2.19,8.79s6.11,1.4,5.98,1.49c3.33.83,3.94,3.04,3.83,4.79l-3.84,15.4c.23.06.53.14.86.27-.27-.07-.57-.14-.87-.22l-5.38,21.58c-.41,1.01-1.44,2.53-3.77,1.95.08.12-5.98-1.49-5.98-1.49l-4.09,9.42,10.71,2.67c1.99.5,3.94,1.02,5.87,1.51l-3.41,13.67,8.22,2.05,3.37-13.53c2.25.61,4.43,1.17,6.56,1.7l-3.36,13.47,8.23,2.05,3.41-13.65c14.03,2.66,24.59,1.58,29.03-11.11,3.58-10.22-.18-16.11-7.56-19.96,5.38-1.24,9.43-4.78,10.51-12.08Zm-18.8,26.37c-2.54,10.22-19.75,4.7-25.33,3.31l4.52-18.12c5.58,1.39,23.47,4.15,20.81,14.81Zm2.55-26.52c-2.32,9.3-16.64,4.57-21.29,3.42l4.1-16.43c4.65,1.16,19.61,3.32,17.19,13.02Z" fill="#fff"/></svg>