<?xml version="1.0" encoding="UTF-8"?><svg xmlns="http://www.w3.org/2000/svg" viewBox="0 0 198.43 198.43"><g id="_藍色"><rect x="0" y="0" width="198.43" height="198.43" rx="99.21" ry="99.21" fill="#00a3e0"/></g><g id="_白色"><g opacity=".4"><path d="m99.21,8c50.29,0,91.21,40.92,91.21,91.21s-40.92,91.21-91.21,91.21S8,149.51,8,99.21,48.92,8,99.21,8M99.21,0h0C44.42,0,0,44.42,0,99.21H0C0,154.01,44.42,198.43,99.21,198.43h0c54.79,0,99.21-44.42,99.21-99.21h0C198.43,44.42,154.01,0,99.21,0h0Z" fill="#fff"/></g><path d="m115.88,49.21v33.33h33.33v-33.33h-33.33Zm22.92,22.92h-12.5v-12.5h12.5v12.5Z" fill="#fff"/><rect x="49.21" y="92.96" width="16.67" height="12.5" fill="#fff"/><rect x="136.71" y="92.96" width="12.5" height="12.5" fill="#fff"/><polygon points="92.96 138.8 92.96 149.21 105.46 149.21 105.46 140.88 124.21 140.88 124.21 128.38 92.96 128.38 92.96 138.8" fill="#fff"/><rect x="92.96" y="49.21" width="12.5" height="33.33" fill="#fff"/><rect x="136.71" y="117.96" width="12.5" height="31.25" fill="#fff"/><path d="m49.21,149.21h33.33v-33.33h-33.33v33.33Zm10.42-22.92h12.5v12.5h-12.5v-12.5Z" fill="#fff"/><path d="m82.55,49.21h-33.33v33.33h33.33v-33.33Zm-10.42,22.92h-12.5v-12.5h12.5v12.5Z" fill="#fff"/><polygon points="105.46 92.96 92.96 92.96 80.46 92.96 80.46 105.46 92.96 105.46 92.96 117.96 105.46 117.96 136.71 117.96 136.71 105.46 105.46 105.46 105.46 92.96" fill="#fff"/></g></svg>