<?xml version="1.0" encoding="UTF-8"?><svg id="_圖層_2" xmlns="http://www.w3.org/2000/svg" viewBox="0 0 150 150"><circle cx="75" cy="75" r="75" fill="#00b041"/><g id="OIPjWg"><path d="m128.43,58.3c-.05.4-.1.8-.15,1.2-.36,2.85-1.58,5.3-3.56,7.37-2.02,2.1-4.47,3.42-7.35,3.9-4.62.78-9.97-1.12-12.68-5.36-.42-.66-.69-1.41-1.03-2.12-.09-.18-.06-.33.09-.5.5-.58.98-1.18,1.46-1.77.05-.06.08-.14.15-.27.18.5.29.89.45,1.26,1.54,3.46,4.17,5.55,7.9,6.19,5.39.92,10.54-2.71,11.77-7.86.19-.8.28-1.64.31-2.47.04-1.07.01-2.16-.05-3.23-.12-2.05-.87-3.87-2.12-5.49-1.82-2.36-4.21-3.79-7.17-4.14-2.94-.34-5.56.55-7.84,2.43-2.37,1.95-4.43,4.22-6.4,6.57-.92,1.09-1.79,2.22-2.69,3.32-.05.07-.12.13-.21.24,0-.14-.02-.21-.02-.29,0-1.09,0-2.18,0-3.27,0-.15.05-.33.14-.44,1.57-2.04,3.21-4.03,5.04-5.84,1.36-1.34,2.83-2.54,4.44-3.57,1.48-.94,3.11-1.47,4.84-1.7,6.87-.9,12.85,3.95,14.26,9.91.16.69.22,1.41.33,2.12.02.16.06.31.08.47v3.34Z" fill="#fff" fill-rule="evenodd"/><path d="m93.66,114.1c.2.15.34.26.48.38,2.07,1.68,4.42,2.75,7.07,3.09,1.76.23,3.52.19,5.19-.51,1.87-.78,2.8-2.25,2.97-4.22.09-1.04.05-2.08.07-3.13,0-.09-.02-.17-.03-.29-.07.04-.12.04-.14.07-1.18,1.34-2.71,2.04-4.42,2.37-2.77.55-5.45.25-7.96-1.08-2.68-1.42-4.23-3.74-4.97-6.63-.29-1.14-.42-2.3-.42-3.47,0-5.15,0-10.3,0-15.44q0-.45.46-.45c1.77,0,3.55,0,5.32,0,.36,0,.44.1.44.45-.01,5.23-.04,10.46,0,15.69.02,2.4,1.45,4.83,4.48,5.36,1.75.3,3.42.03,4.86-1.1,1.09-.85,1.64-2.02,1.81-3.37.07-.53.07-1.06.08-1.59,0-4.99,0-9.97,0-14.96q0-.47.47-.47c1.73,0,3.46,0,5.18,0,.27,0,.36.07.36.36,0,9.23.02,18.46-.03,27.69-.01,2.53-.76,4.86-2.49,6.8-1.44,1.62-3.28,2.58-5.35,3.12-1.22.32-2.47.47-3.74.52-3.51.16-6.65-.82-9.4-3.01-.25-.2-.36-.41-.35-.73.02-1.7,0-3.41,0-5.11,0-.08.01-.16.02-.32Z" fill="#fff" fill-rule="evenodd"/><path d="m41.23,112.26h-.42c-1.7,0-3.41-.01-5.11,0-.37,0-.44-.11-.44-.45,0-7.27,0-14.54,0-21.81,0-3.5,0-7,0-10.5,0-.46,0-.46.45-.46,4.23,0,8.47-.07,12.7.03,3.06.07,5.86,1,8.07,3.25,1.39,1.41,2.21,3.13,2.58,5.06.47,2.45.42,4.89-.41,7.26-1.24,3.57-3.83,5.67-7.42,6.61-1.21.32-2.46.45-3.71.45-1.95,0-3.9,0-5.84,0-.46,0-.46,0-.46.46,0,3.21,0,6.42,0,9.64v.45Zm3.4-16.1c.82,0,1.65.03,2.47,0,.7-.03,1.41-.06,2.1-.21,1.88-.39,3.24-1.44,3.87-3.3.5-1.49.51-3,.07-4.51-.43-1.46-1.37-2.46-2.79-3.03-.88-.35-1.81-.49-2.75-.5-2.02-.02-4.03,0-6.05-.01-.26,0-.33.1-.33.35,0,3.61,0,7.23,0,10.84,0,.29.1.38.38.37,1.01-.01,2.02,0,3.02,0Z" fill="#fff" fill-rule="evenodd"/><path d="m81.77,109.43c-1.37,1.43-3.01,2.21-4.88,2.58-1.38.28-2.78.26-4.18.11-1.7-.18-3.31-.63-4.81-1.45-2.78-1.53-4.48-3.91-5.33-6.93-.38-1.33-.54-2.7-.55-4.08,0-1.33-.04-2.67.08-3.99.44-5.14,3.34-9.42,9.02-10.77,2.96-.7,5.94-.64,8.83.36,3.9,1.35,6.27,4.13,7.28,8.1.3,1.17.43,2.36.43,3.57,0,4.83,0,9.67,0,14.5q0,.49-.49.49c-1.66,0-3.32,0-4.97,0-.31,0-.43-.07-.42-.4.03-.7,0-1.4,0-2.11Zm.06-10.98c-.07-.98-.05-1.97-.22-2.94-.43-2.34-1.74-4.01-3.99-4.85-1.41-.53-2.87-.57-4.34-.31-2.74.48-4.84,2.63-5.26,5.37-.23,1.53-.22,3.08-.06,4.61.27,2.56,1.57,4.44,3.91,5.54,1.46.69,3,.75,4.58.54,2.5-.34,4.36-1.94,5.04-4.36.33-1.18.29-2.38.35-3.59Z" fill="#fff" fill-rule="evenodd"/><path d="m48.8,54.87h-10.91c0-.15-.02-.27-.02-.39,0-.58,0-1.16,0-1.74q0-.48.49-.48h8.84c1.28,0,2.55,0,3.83,0,.3,0,.4.08.4.39,0,4.53,0,9.07-.01,13.6,0,.19-.08.41-.21.56-1.32,1.55-2.99,2.61-4.83,3.43-1.73.77-3.56,1.22-5.45,1.42-3.21.35-6.35.06-9.3-1.31-5.18-2.4-8.43-6.41-9.61-12-.7-3.29-.63-6.59.58-9.78,1.59-4.2,4.47-7.26,8.39-9.37,2.08-1.12,4.3-1.79,6.66-2.05,1.72-.19,3.44-.12,5.17.01,1.69.13,3.34.44,4.94,1.04.33.12.47.27.45.64-.04.79-.01,1.59-.01,2.44-.32-.16-.59-.31-.87-.44-1.44-.7-2.98-1.08-4.57-1.2-1.15-.09-2.31-.15-3.46-.14-3.45.04-6.54,1.17-9.26,3.26-2.59,1.98-4.4,4.52-5.3,7.67-.46,1.6-.54,3.23-.47,4.88.08,2.1.53,4.11,1.48,5.98,2.07,4.1,5.37,6.65,9.87,7.61,1.82.39,3.66.35,5.49.14,2.16-.25,4.22-.83,6.07-2.01.51-.32.97-.71,1.43-1.1.14-.12.24-.35.24-.54.01-3.39.01-6.77,0-10.16,0-.11-.02-.23-.03-.37Z" fill="#fff" fill-rule="evenodd"/><path d="m88.33,67.53c0,.84,0,1.64-.01,2.44,0,.09-.16.23-.26.26-.81.22-1.62.53-2.45.61-3.4.36-6.47-.54-9.18-2.62-2.85-2.19-4.6-5.07-5.06-8.64-.2-1.52-.13-3.08-.1-4.62.06-3.09,1.19-5.78,3.2-8.09,2.01-2.3,4.51-3.81,7.53-4.33,4.09-.71,7.74.31,10.89,3.03,2.43,2.1,3.89,4.77,4.4,7.94.1.6.15,1.22.15,1.83.01,5.03,0,10.06,0,15.1v.46h-2.6v-.5c0-5.03.03-10.06,0-15.1-.04-5.29-3.87-9.33-8.55-10.21-5.67-1.06-11.12,2.82-12.25,8.36-.11.55-.18,1.12-.19,1.69-.02,1.48-.13,2.97.16,4.44.78,3.86,3.03,6.54,6.66,8.03,2.41.99,4.85.91,7.29.04.12-.04.23-.08.39-.13Z" fill="#fff" fill-rule="evenodd"/><path d="m46.8,56.89v.37c0,2.41,0,4.82,0,7.23,0,.26-.08.43-.28.59-1.13.89-2.44,1.36-3.81,1.67-1.55.35-3.14.52-4.72.41-4.66-.31-8.11-2.57-10.34-6.65-.98-1.79-1.37-3.73-1.41-5.77-.03-1.97.22-3.88,1.08-5.67,1.59-3.28,4.16-5.48,7.55-6.75,2.04-.76,4.16-.94,6.32-.8,1.84.12,3.63.4,5.35,1.07.48.19.96.41,1.42.64.1.05.21.2.21.3.02.93,0,1.85,0,2.85-.14-.1-.24-.16-.34-.23-1.43-1.08-3.07-1.67-4.83-1.86-1.18-.13-2.38-.25-3.57-.2-4.18.18-7.44,1.98-9.54,5.66-.73,1.28-1.04,2.68-1.07,4.16-.03,1.71.14,3.38.87,4.94,1.47,3.11,3.88,5.04,7.29,5.57,2.41.38,4.77.04,7.06-.79.23-.08.32-.22.32-.46,0-1.09-.01-2.18,0-3.27,0-.34-.09-.46-.45-.46-1.89.02-3.78,0-5.67.01-.31,0-.42-.07-.41-.4.03-.72,0-1.43,0-2.18h8.93Z" fill="#fff" fill-rule="evenodd"/><path d="m109.01,56.33c.15.68.25,1.26.41,1.82.44,1.54,1.2,2.89,2.35,4.03,2.43,2.39,5.83,1.73,7.72-.21,1.05-1.07,1.62-2.36,1.65-3.86.02-1.13.08-2.28-.03-3.4-.22-2.42-2.05-4.45-4.43-4.99-2.09-.48-3.92.1-5.49,1.52-2.09,1.88-3.91,4.02-5.71,6.17-2.05,2.44-4.04,4.93-6.05,7.4-.02.03-.04.06-.12.07,0-.09-.02-.18-.02-.28,0-1.12,0-2.25,0-3.37,0-.19.08-.41.19-.56,1.86-2.48,3.88-4.82,5.98-7.1,1.15-1.24,2.29-2.49,3.5-3.67,1.37-1.33,2.96-2.36,4.86-2.77,2.26-.48,4.35.03,6.23,1.35,1.93,1.36,3.15,3.2,3.59,5.54.08.41.11.83.11,1.24,0,1.25.05,2.51-.09,3.75-.36,3.27-2.82,6.07-6.05,6.99-3.53,1-7.13-.41-9.21-3.63-.63-.98-1.09-2.04-1.36-3.17-.04-.16.02-.4.12-.53.55-.71,1.12-1.39,1.68-2.08.05-.06.08-.14.16-.26Z" fill="#fff" fill-rule="evenodd"/><path d="m88.33,62.44c0,.9.01,1.73-.01,2.56,0,.12-.15.28-.27.36-.69.47-1.48.71-2.3.84-3.55.55-6.91-1.04-8.74-4.13-.77-1.3-1.18-2.71-1.17-4.23,0-.74,0-1.48,0-2.23-.02-2.81,1.12-5.07,3.29-6.81,4.83-3.89,12.31-1.37,13.51,4.99.11.58.15,1.17.15,1.76.01,4.97,0,9.95,0,14.92q0,.47-.48.47c-.58,0-1.16-.02-1.74,0-.3.01-.37-.1-.37-.38.01-1.33,0-2.67,0-4,0-3.63,0-7.26,0-10.88,0-1.29-.28-2.51-1.03-3.58-1.19-1.67-2.81-2.5-4.88-2.54-2.42-.04-4.98,1.57-5.68,4.38-.11.46-.16.93-.18,1.41-.03.82,0,1.65,0,2.47,0,2.97,2.07,5.41,5.01,5.83,1.61.23,3.13-.11,4.52-.98.1-.06.19-.13.35-.23Z" fill="#fff" fill-rule="evenodd"/><path d="m74.16,44.1c-.66.71-1.24,1.34-1.8,1.96-.67-.25-1.32-.59-2.01-.74-4.12-.93-7.8-.15-10.76,3.02-1.32,1.42-2.06,3.15-2.34,5.06-.13.9-.19,1.82-.19,2.73-.02,4.78,0,9.55,0,14.33q0,.49-.49.49c-.59,0-1.18-.01-1.77,0-.25,0-.34-.08-.32-.32,0-.06,0-.12,0-.17,0-4.97,0-9.95,0-14.92,0-2.87.7-5.52,2.37-7.88,1.97-2.79,4.68-4.42,8.01-5.05,2.59-.49,5.14-.33,7.6.64.58.23,1.11.56,1.71.86Z" fill="#fff" fill-rule="evenodd"/><path d="m71.22,47.73c-.39.78-.77,1.52-1.13,2.25-.52-.12-1.03-.29-1.55-.35-2.48-.29-4.88.49-6.17,2.87-.47.87-.69,1.81-.69,2.8,0,5.04,0,10.09,0,15.13v.48h-2.58c0-.12-.02-.24-.02-.37,0-5.12-.04-10.25.01-15.37.05-4.13,2.89-7.35,6.77-8.05,1.55-.28,3.09-.19,4.59.29.26.08.5.22.76.33Z" fill="#fff" fill-rule="evenodd"/><path d="m102.03,30.72h2.56c0,.14.02.26.02.39,0,4.43,0,8.86,0,13.29,0,.23-.07.38-.23.54-.7.71-1.38,1.44-2.06,2.16-.08.09-.17.18-.29.32v-16.7Z" fill="#fff" fill-rule="evenodd"/><path d="m106.65,43.53v-.44c0-3.98,0-7.95,0-11.93q0-.46.48-.47c.53,0,1.07,0,1.6,0q.5,0,.5.52c0,.77,0,1.53,0,2.3,0,2.63,0,5.26,0,7.9,0,.27-.08.43-.32.58-.67.42-1.3.88-1.95,1.33-.08.06-.16.11-.31.21Z" fill="#fff" fill-rule="evenodd"/></g></svg>