<?xml version="1.0" encoding="UTF-8"?><svg xmlns="http://www.w3.org/2000/svg" viewBox="0 0 198.43 198.43"><g id="_藍色"><rect x="0" y="0" width="198.43" height="198.43" rx="99.21" ry="99.21" fill="#c3c3c3"/></g><g id="_白色"><g opacity=".4"><path d="m99.21,8c50.29,0,91.21,40.92,91.21,91.21s-40.92,91.21-91.21,91.21S8,149.51,8,99.21,48.92,8,99.21,8M99.21,0h0C44.42,0,0,44.42,0,99.21H0C0,154.01,44.42,198.43,99.21,198.43h0c54.79,0,99.21-44.42,99.21-99.21h0C198.43,44.42,154.01,0,99.21,0h0Z" fill="#fff"/></g><path d="m32.91,109.29c0-1.1.4-2,1.19-2.71.79-.7,1.83-1.05,3.1-1.05s2.3.35,3.1,1.05c.79.71,1.19,1.61,1.19,2.71s-.4,2-1.19,2.71c-.8.7-1.83,1.05-3.1,1.05s-2.3-.35-3.1-1.05c-.8-.7-1.19-1.61-1.19-2.71Zm8.22,31.23h-7.76v-24.83h7.76v24.83Z" fill="#fff"/><path d="m73.28,129.21c-.11,2.33-.73,4.38-1.88,6.16-1.15,1.78-2.76,3.16-4.83,4.14-2.07.98-4.44,1.47-7.1,1.47-4.39,0-7.85-1.43-10.37-4.29-2.52-2.86-3.79-6.9-3.79-12.12v-1.65c0-3.27.57-6.14,1.71-8.59,1.14-2.46,2.78-4.35,4.92-5.69,2.14-1.34,4.62-2.01,7.44-2.01,4.05,0,7.31,1.07,9.78,3.2,2.46,2.13,3.86,5.08,4.2,8.82h-8.03c-.06-2.03-.57-3.5-1.54-4.38-.96-.89-2.43-1.33-4.41-1.33s-3.47.75-4.41,2.25c-.93,1.5-1.42,3.89-1.47,7.18v2.36c0,3.57.45,6.11,1.34,7.64.89,1.53,2.44,2.29,4.62,2.29,1.85,0,3.27-.44,4.25-1.31.98-.87,1.5-2.26,1.56-4.15h8.01Z" fill="#fff"/><path d="m96.07,134.28h-11.04l-1.93,6.24h-8.61l12.25-33.41h7.57l12.35,33.41h-8.65l-1.95-6.24Zm-9.11-6.22h7.18l-3.6-11.59-3.58,11.59Z" fill="#fff"/><path d="m121.52,128.7h-4.36v11.82h-8.06v-33.41h13.15c3.96,0,7.06.88,9.29,2.64,2.23,1.76,3.35,4.24,3.35,7.45,0,2.32-.47,4.25-1.41,5.78-.94,1.53-2.41,2.77-4.42,3.71l6.98,13.49v.34h-8.63l-5.9-11.82Zm-4.36-6.2h5.09c1.53,0,2.68-.4,3.45-1.21s1.16-1.93,1.16-3.37-.39-2.57-1.17-3.39c-.78-.82-1.93-1.23-3.44-1.23h-5.09v9.2Z" fill="#fff"/><path d="m139.76,140.52v-33.41h10.76c2.95,0,5.61.67,7.96,2.01,2.36,1.34,4.2,3.23,5.52,5.67,1.32,2.44,1.99,5.17,2.01,8.2v1.54c0,3.06-.65,5.8-1.94,8.23-1.29,2.43-3.11,4.32-5.46,5.69-2.35,1.37-4.97,2.06-7.86,2.08h-10.99Zm8.06-27.2v21h2.8c2.31,0,4.09-.82,5.32-2.47,1.24-1.64,1.86-4.09,1.86-7.33v-1.45c0-3.23-.62-5.66-1.86-7.3-1.24-1.64-3.04-2.46-5.42-2.46h-2.71Z" fill="#fff"/></g><g id="_黑色"><path d="m126.98,45.13h-55.54c-5.86,0-10.61,4.75-10.61,10.61v22.7c0,5.86,4.75,10.61,10.61,10.61h55.54c5.86,0,10.61-4.75,10.61-10.61v-22.7c0-5.86-4.75-10.61-10.61-10.61Zm3.42,31.47h-62.39v-6.93h62.39v6.93Z" opacity=".4"/></g></svg>