<?xml version="1.0" encoding="UTF-8"?><svg id="_圖層_2" xmlns="http://www.w3.org/2000/svg" viewBox="0 0 150 150"><circle cx="75" cy="75" r="75" fill="#ffd200"/><path d="m20.28,43.23c.22-2.05,2.24-3.41,4.07-3.38.88.01,1.74.21,2.6.26,1.25.08,2.52,0,3.77-.06.94-.05,1.93-.06,2.81-.35,1.81-.6,3.64-1.11,4.83-2.94,1.49-2.29,3.55-4.11,5.66-5.85,1.99-1.65,4.19-2.95,6.53-4.01,2.19-.99,4.5-1.62,6.86-2,2.14-.35,4.31-.39,6.47-.28,1.5.08,3,.23,4.48.52,1.83.36,3.6.91,5.34,1.54,2.39.86,4.57,2.08,6.48,3.78,1.54,1.38,2.77,2.98,3.74,4.82.94,1.78,1.38,3.67,1.8,5.61.25,1.19.31,2.39.33,3.57.03,1.84-.29,3.66-.62,5.48-.67,3.69-1.91,7.17-3.69,10.45-.79,1.46-1.75,2.82-2.91,4.02-.65.67-1.08,1.48-1.37,2.35-.16.47.16.87.69.9,2.6.17,5.14-.14,7.63-.86,4.77-1.38,9.45-3.02,14.07-4.82,3.03-1.18,5.93-2.6,8.56-4.51,1.21-.88,2.38-1.82,3.47-2.84,1.48-1.39,3.62-1.23,5.16-.28,2.02,1.24,3.37,3.11,4.57,5.09,2.18,3.6,3.8,7.45,5.12,11.44.63,1.89,1.27,3.8,1.58,5.75.29,1.85.65,3.69.92,5.54.33,2.29.55,4.58.49,6.88-.06,2.26-.15,4.54-.66,6.77-.59,2.6-1.43,5.12-2.6,7.51-1.12,2.29-2.47,4.44-4.08,6.43-1.19,1.47-2.45,2.85-3.83,4.13-2.08,1.93-4.31,3.65-6.85,4.99-3.56,1.89-7.32,3.19-11.2,4.17-2.2.56-4.44.99-6.7,1.33-1.66.25-3.32.43-4.99.62-1.66.19-3.33.26-5,.35-2.61.14-5.21.13-7.81.06-2.12-.06-4.26.02-6.38-.34-1.48-.25-2.99-.33-4.48-.57-2.29-.36-4.58-.71-6.85-1.22-2.75-.61-5.47-1.32-8.14-2.23-3.69-1.26-7.22-2.88-10.51-4.98-2.11-1.35-4.03-2.96-5.55-4.91-2.93-3.75-5.3-7.85-6.75-12.42-.61-1.91-1.04-3.86-1.27-5.87-.21-1.81-.24-3.62-.07-5.4.3-3.17,1.23-6.21,2.74-9.04,1.38-2.58,3.08-4.93,5.26-6.89.71-.64,1.47-1.24,2.26-1.79,1.3-.9,2.63-1.79,3.75-2.91.89-.9,1.64-1.97,1.76-3.31.12-1.39-.43-2.57-1.23-3.68-.64-.89-1.51-1.11-2.52-1.15-2.03-.09-3.95-.62-5.84-1.35-1.23-.47-2.41-1.04-3.52-1.76-1.92-1.25-3.62-2.75-5.03-4.58-.93-1.21-1.84-2.41-2.52-3.78-.36-.73-.62-1.47-.7-2.28-.02-.23-.15-1.54-.13-1.71Zm58.97,28.16c-.64.08-1.63-.13-2.63-.55-1.14-.49-2.05-1.16-2.48-2.31-.76-2.06-.08-3.81,1.27-5.41.88-1.03,1.87-2.02,2.52-3.19,1.79-3.2,3.24-6.54,3.94-10.19.34-1.78.58-3.57.58-5.35,0-2.01-.21-4.02-.95-5.96-.47-1.22-1.02-2.4-1.78-3.39-1.3-1.67-2.96-3.01-4.87-4.01-2.05-1.07-4.22-1.74-6.48-2.18-2.04-.4-4.1-.67-6.17-.8-1.88-.11-3.73.27-5.57.65-2.01.42-3.95,1.06-5.77,2-1.01.52-1.96,1.14-2.92,1.77-1.35.89-2.62,1.87-3.84,2.93-1.3,1.12-2.23,2.56-3.32,3.85-.28.33-.56.65-.65,1.08-.34,1.55-.05,3.02.67,4.4.61,1.15,1.45,2.14,2.18,3.21.15.22.46.31.49.61.06.64.44,1.25.74,1.7.61.91.63,1.94.64,2.84.02,1.4-.25,2.87-1.46,3.9-.24.2-.33.45-.1.69.4.42.55.98.87,1.44.85,1.21,1.11,2.59,1.15,4,.06,1.98-.88,3.64-1.95,5.23-.81,1.2-1.91,2.07-3.06,2.92-.88.65-1.91,1.09-2.67,1.9-.28.29-.55.6-.91.76-.65.28-1.18.77-1.54,1.3-.77,1.13-1.73,2.11-2.46,3.28-1.1,1.76-1.92,3.63-2.5,5.6-.49,1.65-.73,3.34-.77,5.06-.05,1.86,0,3.7.46,5.52.09.35.29.69.32,1.04.11,1.1.53,2.11.9,3.13.71,1.94,1.64,3.77,2.63,5.58.82,1.5,1.71,2.94,2.81,4.24,1.69,2.01,3.62,3.77,5.93,5.03,2.56,1.39,5.17,2.7,7.94,3.63,2.41.81,4.83,1.54,7.32,2.12,2.3.53,4.62.88,6.93,1.33,1.24.24,2.52.24,3.76.42,2.22.32,4.46.49,6.69.52,3.11.05,6.22.13,9.33-.08,1.4-.1,2.82-.22,4.24-.19.62.01,1.28-.1,1.86-.31.63-.23,1.29-.13,1.93-.26.53-.11,1.17-.09,1.74-.2,1.2-.23,2.41-.5,3.6-.74.75-.15,1.54-.31,2.29-.5,2.33-.57,4.61-1.29,6.81-2.26,2.23-.99,4.42-2.07,6.36-3.58,1.64-1.28,3.17-2.68,4.55-4.24,2.36-2.65,4.56-5.38,5.84-8.75.56-1.47,1.18-2.9,1.56-4.43.41-1.65.71-3.32.87-5.01.3-3.09-.3-6.12-.65-9.17-.25-2.17-.63-4.31-1.15-6.42-.64-2.58-1.4-5.14-2.46-7.58-1.16-2.68-2.37-5.34-4.02-7.79-.75-1.11-1.61-2.04-2.7-2.77-.47-.31-.91-.32-1.32.16-.36.42-.75.85-1.19,1.18-1.26.93-2.53,1.84-3.83,2.7-.74.49-1.58.83-2.33,1.31-1.24.81-2.59,1.4-3.94,1.96-1.08.45-2.19.87-3.28,1.32-2.11.87-4.25,1.65-6.41,2.4-1.96.68-3.95,1.32-5.98,1.78-2.38.54-4.75,1.18-7.64,1.17Zm-40.3-16.28c.85.04,1.59.11,1.98-.62.35-.66.4-1.39.19-2.11-.39-1.36-1.03-2.61-1.91-3.7-1.27-1.58-2.29-3.29-2.62-5.3-.12-.7-.44-.69-.88-.6-.9.19-1.76.51-2.68.64-1.37.19-2.71.47-4.12.48-1.4,0-2.75-.31-4.13-.31-.91,0-1.16.36-.82,1.24.02.04.05.08.06.12.36,1.12,1.08,2.03,1.74,2.98,1.39,2,3.12,3.65,5.22,4.88,2.5,1.47,5.2,2.3,7.97,2.31Z"/><path d="m47.03,44.68c.15.05.06.09,0,.14v-.14Z"/><path d="m79.25,71.39c2.89,0,5.26-.62,7.64-1.17,2.03-.46,4.02-1.1,5.98-1.78,2.15-.75,4.3-1.53,6.41-2.4,1.08-.45,2.2-.87,3.28-1.32,1.35-.56,2.7-1.15,3.94-1.96.74-.49,1.59-.82,2.33-1.31,1.3-.86,2.58-1.77,3.83-2.7.44-.33.83-.75,1.19-1.18.41-.48.86-.47,1.32-.16,1.09.73,1.96,1.67,2.7,2.77,1.65,2.44,2.86,5.11,4.02,7.79,1.06,2.44,1.83,5,2.46,7.58.52,2.11.89,4.25,1.15,6.42.36,3.05.95,6.08.65,9.17-.17,1.69-.46,3.36-.87,5.01-.38,1.53-1,2.97-1.56,4.43-1.28,3.37-3.49,6.1-5.84,8.75-1.39,1.56-2.92,2.95-4.55,4.24-1.93,1.51-4.12,2.6-6.36,3.58-2.19.97-4.48,1.7-6.81,2.26-.75.18-1.54.34-2.29.5-1.19.24-2.4.52-3.6.74-.57.11-1.22.09-1.74.2-.64.13-1.3.03-1.93.26-.58.21-1.24.33-1.86.31-1.42-.03-2.83.09-4.24.19-3.11.22-6.22.13-9.33.08-2.23-.03-4.47-.2-6.69-.52-1.25-.18-2.52-.18-3.76-.42-2.31-.45-4.63-.8-6.93-1.33-2.49-.57-4.91-1.3-7.32-2.12-2.77-.93-5.38-2.25-7.94-3.63-2.31-1.25-4.24-3.02-5.93-5.03-1.1-1.31-1.99-2.75-2.81-4.24-.99-1.81-1.92-3.64-2.63-5.58-.37-1.02-.78-2.03-.9-3.13-.04-.35-.23-.69-.32-1.04-.47-1.81-.51-3.66-.46-5.52.05-1.72.29-3.42.77-5.06.58-1.97,1.4-3.83,2.5-5.6.73-1.17,1.69-2.14,2.46-3.28.36-.53.89-1.02,1.54-1.3.36-.16.64-.46.91-.76.76-.81,1.79-1.25,2.67-1.9,1.15-.85,2.25-1.72,3.06-2.92,1.07-1.59,2-3.25,1.95-5.23-.04-1.41-.31-2.8-1.15-4-.32-.46-.48-1.02-.87-1.44-.23-.24-.15-.49.1-.69,1.21-1.03,1.49-2.5,1.46-3.9-.02-.9-.03-1.92-.64-2.84-.3-.45-.67-1.05-.74-1.7-.03-.3-.34-.39-.49-.61-.74-1.07-1.58-2.06-2.18-3.21-.73-1.38-1.02-2.85-.67-4.4.09-.43.37-.74.65-1.08,1.09-1.3,2.03-2.73,3.32-3.85,1.22-1.06,2.48-2.04,3.84-2.93.95-.63,1.9-1.25,2.92-1.77,1.83-.94,3.76-1.58,5.77-2,1.84-.38,3.69-.76,5.57-.65,2.07.12,4.13.4,6.17.8,2.26.44,4.44,1.1,6.48,2.18,1.9,1,3.56,2.33,4.87,4.01.77.99,1.32,2.17,1.78,3.39.74,1.94.95,3.95.95,5.96,0,1.79-.24,3.57-.58,5.35-.69,3.65-2.15,6.99-3.94,10.19-.65,1.17-1.65,2.15-2.52,3.19-1.35,1.59-2.04,3.35-1.27,5.41.43,1.15,1.34,1.82,2.48,2.31,1,.43,1.99.63,2.63.55Zm-22.48-29.33c0-1.68-1.02-2.75-2.63-2.75-1.38,0-2.73,1.29-2.74,2.62,0,1.2,1.27,2.81,2.65,2.76,1.55-.05,2.72-1.12,2.72-2.63Z" fill="#fed100"/><path d="m38.95,55.11c-2.76-.01-5.46-.84-7.97-2.31-2.1-1.23-3.82-2.88-5.22-4.88-.66-.95-1.38-1.86-1.74-2.98-.01-.04-.04-.08-.06-.12-.34-.87-.09-1.23.82-1.24,1.38,0,2.74.32,4.13.31,1.4,0,2.75-.29,4.12-.48.92-.13,1.78-.44,2.68-.64.44-.1.76-.11.88.6.33,2.01,1.35,3.72,2.62,5.3.89,1.1,1.52,2.34,1.91,3.7.21.72.16,1.45-.19,2.11-.39.73-1.13.66-1.98.62Z" fill="#ff8a00"/><path d="m56.78,42.06c0,1.5-1.17,2.58-2.72,2.63-1.38.05-2.66-1.57-2.65-2.76.01-1.32,1.36-2.62,2.74-2.62,1.61,0,2.63,1.07,2.63,2.75Z"/><path d="m55.3,82.01h-2.46c-.55,0-1,.45-1,1v5.03c-.07-.04-.14-.08-.21-.12-.83-.45-1.79-.68-2.83-.68-1.39,0-2.67.37-3.81,1.11-1.14.74-2.01,1.82-2.57,3.19-.53,1.3-.8,2.77-.8,4.35s.3,3.12.9,4.4c.61,1.32,1.5,2.36,2.63,3.11,1.14.75,2.41,1.13,3.76,1.13,1.23,0,2.3-.29,3.2-.87.17.32.5.54.89.54h2.3c.55,0,1-.45,1-1v-20.19c0-.55-.45-1-1-1Zm-6.16,18.48c-.77,0-1.44-.34-2.03-1.04-.63-.74-.95-1.93-.95-3.55s.3-2.91.88-3.62c.55-.67,1.18-.99,1.99-.99s1.49.33,2.08,1.04c.62.75.93,2.02.93,3.77,0,1.56-.3,2.71-.9,3.41-.57.67-1.21.98-2,.98Z"/><rect x="58.9" y="99.37" width="4.82" height="4.82" rx="1" ry="1"/><path d="m83.76,88.85c0-1.15-.24-2.22-.71-3.19-.48-.99-1.14-1.77-1.95-2.33-.79-.55-1.76-.92-2.88-1.11-.78-.14-1.84-.21-3.25-.21h-7.62c-.55,0-1,.45-1,1v20.19c0,.55.45,1,1,1h2.67c.55,0,1-.45,1-1v-7.21h4.18c3.18,0,5.35-.69,6.66-2.11,1.26-1.37,1.9-3.07,1.9-5.03Zm-4.75.08c0,.88-.25,1.52-.75,1.96-.37.33-1.19.71-3.01.71h-4.22v-5.22h4.16c1.46,0,2.03.09,2.23.14.47.13.84.39,1.14.81.31.43.46.95.46,1.59Z"/><path d="m93.41,82.63c-.15-.38-.52-.62-.93-.62h-2.88c-.41,0-.79.25-.93.64l-7.75,20.19c-.12.31-.08.65.11.92s.5.43.82.43h2.84c.42,0,.8-.26.94-.66l1.98-5.46h7.05l2.11,5.47c.15.39.52.64.93.64h3.04c.33,0,.64-.17.83-.44.19-.28.22-.63.1-.94l-8.26-20.19Zm-.33,11.28h-3.96l1.71-4.58c.09-.24.17-.48.25-.72.12.34.25.69.39,1.06l1.6,4.24Z"/><path d="m118.08,82.54c-.17-.33-.51-.54-.89-.54h-3.11c-.34,0-.65.17-.83.45l-3.91,5.94c-.49.75-.94,1.46-1.35,2.13-.39-.66-.8-1.33-1.23-1.98l-3.98-6.09c-.18-.28-.5-.45-.84-.45h-3.25c-.37,0-.71.2-.88.53-.17.33-.15.72.05,1.03l7.61,11.38v8.25c0,.55.45,1,1,1h2.67c.55,0,1-.45,1-1v-8.24l7.88-11.38c.21-.31.24-.7.06-1.03Z"/></svg>