<svg viewBox="0 0 150 150" xmlns="http://www.w3.org/2000/svg"><circle cx="75" cy="75" fill="#c3c3c3" r="75"/><path d="m23.24 74.77c.62-17.56 8.64-30.6 24.14-38.93 6.1-3.28 12.79-4.69 19.69-4.64 9.67.08 18.46 2.98 26.2 8.86 2.66 2.02 3.23 4.93 1.45 7.39s-4.91 2.8-7.61.86c-10.11-7.26-21.14-8.87-32.62-4.23-11.89 4.81-18.93 13.93-20.57 26.72-2.35 18.42 10.25 34.73 28.61 37.27 8.6 1.19 16.5-.87 23.64-5.82.52-.36 1.03-.73 1.56-1.07 2.31-1.46 5.17-.99 6.82 1.1 1.74 2.22 1.67 4.94-.41 6.83-3.36 3.04-7.28 5.21-11.53 6.71-16.09 5.69-30.9 3.22-44.06-7.63-9.43-7.77-15.61-20.3-15.32-33.44z" fill="#7c7c7c"/><path d="m80.79 69.69c2.68 0 5.35-.03 8.03 0 3.92.05 5.89 2.07 5.88 5.99-.03 13.25-10.5 25.06-23.72 26.76-13.71 1.76-25.86-5.74-30.41-18.76-4.47-12.78 1.67-27.72 13.94-33.59 9.13-4.37 18.15-3.96 26.92 1.13 2.75 1.6 3.61 4.85 2.03 7.42-1.55 2.53-4.65 3.2-7.41 1.6-6.67-3.88-14.31-3.3-20.14 1.53-6.55 5.42-8.17 14.65-3.7 22.01 3.74 6.16 9.39 8.95 16.5 8.3 6.57-.6 11.3-4.12 14.05-10.17.74-1.63.67-1.7-1.06-1.71-3.06 0-6.13 0-9.19 0-3.35-.01-5.63-2.09-5.67-5.14-.04-3.11 2.11-5.26 5.49-5.35 2.82-.07 5.64-.02 8.46-.02z" fill="#fff"/><g fill="#7c7c7c"><path d="m126.75 74.52c.12 9.97-2.09 18.8-6.25 27.17-1.46 2.93-4.31 3.95-7.06 2.59-2.54-1.26-3.49-4.21-2.09-7 4.17-8.35 5.78-17.2 5.11-26.45-.46-6.32-2.2-12.34-5.04-18.01-1.05-2.1-.96-4.04.53-5.84 2.41-2.92 6.75-2.31 8.56 1.28 2.53 5.02 4.29 10.32 5.31 15.85.67 3.64 1.05 7.31.94 10.42z"/><path d="m110.71 73.89c-.14 7.23-1.25 13.35-3.98 19.12-1.28 2.71-4.2 3.92-6.64 2.83-2.72-1.22-3.83-4.22-2.6-7.1 3.91-9.09 3.95-18.2.09-27.32-.71-1.66-.9-3.26-.03-4.9 1.82-3.42 6.73-3.61 8.78-.32 1.38 2.22 2.02 4.74 2.72 7.21.54 1.91.93 3.88 1.21 5.85.26 1.82.52 3.66.44 4.63z"/></g></svg>