<?xml version="1.0" encoding="UTF-8"?><svg id="_圖層_2" xmlns="http://www.w3.org/2000/svg" viewBox="0 0 150 150"><circle cx="75" cy="75" r="75" fill="#c3c3c3"/><path d="m109.17,116.34c-5.42-.23-11.06-.37-16.69-.79-5.16-.38-10.3-.78-15.39-1.72-9.09-1.68-17.88-4.26-26.09-8.62-7.3-3.88-13.57-8.94-18.07-15.97-2.71-4.23-4.7-8.75-5.37-13.79-1.04-7.82.93-14.81,5.91-20.89,4.78-5.85,11.06-9.1,18.49-10.2.94-.14,1.88-.25,2.83-.31.94-.05,1.24.35.92,1.25-.41,1.13-.94,2.21-1.33,3.34-2.22,6.44-1.65,12.75.92,18.96,1.84,4.44,4.4,8.42,7.75,11.85,2.79,2.86,6,5.17,9.52,7.07,6.74,3.64,14,5.69,21.52,6.95,3.94.66,7.92,1.04,11.9,1.36,1.03.08,1.71.56,2.05,1.55,1.85,5.36,3.47,10.79,4.92,16.28.74,2.83.09,3.65-2.8,3.66-.25,0-.5,0-.97,0Z" fill="#7c7c7c"/><path d="m113.11,90.17c-8.82.07-17.59-.47-26.15-2.81-5.87-1.6-11.44-3.87-16.39-7.47-6.49-4.72-10.89-10.91-12.46-18.83-1.52-7.68.71-14.44,5.85-20.22,3.78-4.25,8.75-6.28,14.28-7.01,5.82-.77,11.05.97,15.93,3.99,5.46,3.39,9.77,7.94,13.38,13.21,5.37,7.84,9.09,16.45,12.01,25.45,1.1,3.4,2.12,6.83,2.92,10.32.08.35.17.71.2,1.07.11,1.09-.49,1.92-1.54,2.16-.32.07-.66.13-.99.13-2.35.01-4.69,0-7.04,0Z" fill="#fff"/></svg>