<?xml version="1.0" encoding="UTF-8"?><svg id="_圖層_2" xmlns="http://www.w3.org/2000/svg" viewBox="0 0 150 150"><circle cx="75" cy="75" r="75" fill="#c3c3c3"/><path d="m38.47,80.7c-.01.06-1.43,2.09-3.14,4.49-1.71,2.4-3.14,4.38-3.17,4.38-.12,0-.06-.39.69-4.66.42-2.36.76-4.29.76-4.31s1.1-.02,2.44-.02c2.06,0,2.44.02,2.42.12Z" fill="#fff"/><path d="m64.95,85.2c0,.28-2.72,16.01-2.9,16.79l-.04.19h-2.55c-2.94,0-3.07-.02-3.79-.68-.65-.6-.84-1.07-.84-2.14,0-.69.15-1.68.86-5.63.47-2.63.86-4.87.86-4.98v-.19h-9.32l-.05.19c-.03.1-.57,3.17-1.21,6.81-.8,4.55-1.2,6.65-1.28,6.7-.17.11-8.32.09-8.5-.02-.09-.05-.13-.15-.11-.23.02-.08.88-4.83,1.89-10.56,1.02-5.73,1.87-10.52,1.9-10.65l.05-.23h4.32c2.37,0,4.33.03,4.35.06.02.03-.09.74-.25,1.57s-.27,1.54-.26,1.59c.01.04.22-.17.45-.47.78-1,2.23-1.9,3.59-2.25.62-.16.93-.17,4.97-.17,4.79,0,4.84,0,5.75.59,1.14.73,2.1,2.42,2.1,3.7Z" fill="#fff"/><path d="m98.06,80.67c0,.23-1.28,7.53-1.35,7.7l-.08.19h-10.42c-7.42,0-10.43.03-10.47.09-.03.05-.56,2.93-1.17,6.41-.78,4.42-1.09,6.35-1.03,6.42.07.08,1.44.11,6.36.1,3.45,0,6.32-.03,6.39-.07.08-.05.35-1.44.83-4.14.39-2.24.75-4.11.8-4.17.07-.08,1.02-.11,4.24-.11,3.73,0,4.16.01,4.2.13.05.14-1.64,9.98-1.88,10.92-.28,1.11-.88,2.15-1.79,3.1-.95.99-2.17,1.73-3.44,2.1-.64.18-.66.18-10.52.2-5.43,0-10.06-.02-10.29-.06-1.82-.31-3.2-1.49-3.79-3.25q-.43-1.27,1.34-11.24c.86-4.85,1.61-8.97,1.66-9.16.15-.55.63-1.53,1.03-2.09.82-1.14,2.17-2.21,3.41-2.7,1.22-.48.71-.46,13.86-.46,9.03,0,12.1.02,12.1.1Z" fill="#7c7c7c"/><path d="m132.2,83.98c-.51-1.65-1.74-2.8-3.43-3.24-.63-.16-.96-.17-10.43-.17-10.72,0-10.36-.02-11.62.5-.33.14-.83.39-1.12.56-.65.39-1.73,1.42-2.21,2.1-.4.56-.88,1.54-1.03,2.09-.11.4-3.08,17.19-3.21,18.15-.16,1.15.11,2.41.73,3.39.7,1.11,2.07,1.96,3.43,2.15.14.02,4.71.03,10.17.02h9.92s.62-.2.62-.2c2.03-.63,3.78-2.09,4.7-3.93.14-.28.31-.69.39-.92.07-.23.84-4.41,1.71-9.29,1.75-9.87,1.77-10.01,1.39-11.22Zm-8.91,4.93c-.07.85-2.2,12.54-2.3,12.6-.06.04-2.93.07-6.38.07-4.92,0-6.29-.02-6.35-.1-.05-.07.28-2.15,1.03-6.37.61-3.45,1.13-6.33,1.16-6.41.05-.13.58-.14,6.46-.12l6.41.02-.02.31Z" fill="#7c7c7c"/><path d="m135,68.01c-.81,4.62-1.5,8.49-1.52,8.6l-.04.19-2.29-.03-2.29-.03-.48-.24c-.86-.42-1.34-1.15-1.46-2.25-.06-.5.08-1.4,1.22-7.77.37-2.09.54-3.23.49-3.3-.06-.08-1.02-.11-4.31-.11h-4.24l-.08.19c-.04.1-.59,3.14-1.22,6.74s-1.16,6.62-1.18,6.7c-.04.14-.3.15-4.03.15h-3.99v-.19c0-.23,5.12-29.32,5.18-29.41.06-.09,7.91-.08,7.97,0,.03.04-.39,2.54-.92,5.56-.53,3.02-.94,5.51-.92,5.53.03.03.08-.01.12-.09.04-.07.25-.37.47-.66.75-.99,2.02-1.82,3.19-2.07.73-.15,8.1-.18,8.9-.03,1.14.21,2.02.87,2.53,1.89.27.55.31.72.35,1.4.04.73-.07,1.37-1.44,9.18Z" fill="#7c7c7c"/><path d="m108.06,62.32l-.08.19h-5.63c-5.29,0-5.63,0-5.67.15-.02.08-.31,1.69-.65,3.58-.5,2.85-.59,3.45-.49,3.51.06.04,2.47.07,5.4.07,2.91,0,5.31.03,5.34.06.04.05-.43,2.88-1.17,6.98,0,.01-3.36.02-7.46.01-5.75,0-7.55-.03-7.85-.11-1.54-.43-2.6-1.84-2.6-3.48,0-.46,2.27-13.56,2.45-14.13.39-1.22,1.53-2.55,2.73-3.17,1.22-.63.85-.61,9.29-.61,4.15,0,7.55.03,7.57.06.05.08-1.1,6.64-1.2,6.89Z" fill="#7c7c7c"/><path d="m87.73,55.49c0,.16-3.76,21.49-3.8,21.52-.18.17-3.29.05-4.27-.16-1.07-.23-1.61-.75-2.37-2.3l-.42-.87-.85.83c-.95.93-1.8,1.52-2.67,1.89-1.12.47-1.31.48-6.13.49-4.2,0-4.45,0-4.97-.17-1.42-.44-2.34-1.61-2.46-3.14-.04-.53.13-1.6,1.47-9.26.84-4.76,1.54-8.72,1.57-8.8.04-.14.3-.15,3.82-.15h3.78v.2c0,.11-.55,3.33-1.23,7.15-.99,5.6-1.2,6.97-1.11,7.02.14.09,9.25.08,9.4,0,.07-.04.55-2.56,1.35-7.1.68-3.87,1.26-7.08,1.29-7.15.07-.18,7.62-.19,7.62,0Z" fill="#7c7c7c"/><path d="m59.47,58.77c-.04-1.02-.26-1.57-.9-2.26-.49-.52-1.03-.84-1.73-1.02-.74-.19-15.6-.19-16.43,0-1.65.39-3.27,1.81-3.84,3.37-.25.7-2.48,13.18-2.53,14.19-.04.85.09,1.49.45,2.1.42.71,1.39,1.43,2.19,1.62.17.04,3.83.08,8.13.08,6.68,0,7.89-.01,8.35-.12,1.76-.42,3.38-1.96,3.91-3.74.08-.25.65-3.37,1.27-6.93,1.05-5.96,1.13-6.54,1.11-7.31Zm-8.77,7.35c-.46,2.59-.66,3.51-.76,3.59-.17.12-7.4.15-7.59.03-.1-.06-.02-.64.5-3.63l.62-3.56,3.86-.02c2.12-.01,3.89,0,3.92.04.03.04-.22,1.63-.56,3.55Z" fill="#7c7c7c"/><path d="m43.95,46.61c0,.34-1.2,6.88-1.28,6.98-.07.08-1.19.11-5.12.11h-5.03l-.04.19c-.03.1-.93,5.24-2.02,11.41-1.09,6.17-1.99,11.3-2.02,11.41l-.04.19h-8.74v-.2c0-.11.89-5.24,1.97-11.41,1.09-6.16,1.97-11.29,1.97-11.4v-.19h-5c-4.4,0-5.01-.02-5.05-.13-.05-.12,1.1-6.87,1.19-7.02.03-.04,6.06-.08,14.62-.08,13.71,0,14.57,0,14.57.14Z" fill="#7c7c7c"/></svg>