<?xml version="1.0" encoding="UTF-8"?><svg id="_圖層_2" xmlns="http://www.w3.org/2000/svg" viewBox="0 0 150 150"><circle cx="75" cy="75" r="75" fill="#c3c3c3"/><path d="m85.11,78.44h0c-.56.04-3.48.22-9.99.22-5.18,0-8.85-.16-10.14-.22h0c-20.01-.88-34.94-4.36-34.94-8.53s14.93-7.65,34.94-8.54v13.61c1.31.09,5.06.32,10.23.32,6.21,0,9.32-.26,9.88-.31v-13.6c19.97.89,34.87,4.37,34.87,8.53s-14.9,7.64-34.87,8.53h.02Zm0-18.47v-12.18h27.86v-18.57H37.11v18.57h27.86v12.17c-22.64,1.04-39.67,5.53-39.67,10.9s17.03,9.86,39.67,10.9v39.02h20.14v-39.03c22.59-1.04,39.59-5.52,39.59-10.89s-16.99-9.85-39.59-10.9h0Zm0,0h0Z" fill="#fff" fill-rule="evenodd"/></svg>