<?xml version="1.0" encoding="UTF-8"?><svg id="_圖層_2" xmlns="http://www.w3.org/2000/svg" viewBox="0 0 150 150"><path d="m150,75c0,8.71-1.49,17.08-4.22,24.85-2.43,6.92-5.84,13.37-10.08,19.19-13.62,18.76-35.74,30.96-60.7,30.96C33.58,150,0,116.42,0,75S33.58,0,75,0s75,33.58,75,75Z" fill="#00a0e9"/><path d="m100.96,85.64c5.44-9.4,9.8-20.11,12.66-31.82h-31.23v-10.59h38.31v-6.49h-38.31v-17.68h-14.72c-2.64,0-2.98,2.4-2.98,2.4v15.28H28.77v6.49h35.92v10.59h-29.43v5.9h59.5c-2.18,7.47-5.08,14.48-8.53,20.84-13.43-4.43-20.97-7.52-37.42-9.06-31.23-2.95-38.42,14.18-39.53,24.67-1.73,15.97,12.41,29.02,33.61,29.02s35.24-9.75,48.67-26c11.69,5.59,30.51,13.9,44.14,19.85,4.24-5.82,7.65-12.27,10.08-19.19-11.56-3.55-37.82-11.67-44.82-14.21Zm-60.41,29.46c-22.4,0-25.92-14.14-24.74-20.04,1.18-5.9,7.67-13.55,20.11-13.55,14.32,0,27.12,3.65,42.48,11.14-10.78,14.07-24.08,22.45-37.85,22.45Z" fill="#fff"/></svg>