<?xml version="1.0" encoding="UTF-8"?><svg id="_圖層_2" xmlns="http://www.w3.org/2000/svg" viewBox="0 0 150 150"><circle cx="75" cy="75" r="75" fill="#c3c3c3"/><path d="m61.09,86.7c-.47.24-.95.35-1.53.35-1.31,0-2.37-.7-2.97-1.75l-.24-.46-9.35-20.1c-.11-.24-.11-.46-.11-.7,0-.94.71-1.64,1.66-1.64.36,0,.71.11,1.06.35l11.01,7.71c.82.46,1.77.81,2.84.81.6,0,1.18-.11,1.77-.35l51.63-22.67c-9.24-10.75-24.51-17.77-41.8-17.77-28.18,0-51.15,18.82-51.15,42.06,0,12.62,6.87,24.07,17.64,31.78.82.59,1.42,1.64,1.42,2.69,0,.35-.11.7-.24,1.05-.82,3.15-2.25,8.3-2.25,8.53-.11.35-.24.81-.24,1.29,0,.94.71,1.64,1.66,1.64.35,0,.71-.11.95-.35l11.13-6.43c.82-.46,1.77-.81,2.72-.81.47,0,1.06.11,1.53.24,5.21,1.51,10.9,2.34,16.7,2.34,28.18,0,51.15-18.82,51.15-42.06,0-7.01-2.13-13.67-5.8-19.52l-58.83,33.53-.35.24h0Z" fill="#fff"/></svg>