<?xml version="1.0" encoding="UTF-8"?><svg id="_圖層_2" xmlns="http://www.w3.org/2000/svg" viewBox="0 0 150 150"><circle cx="75" cy="75" r="75" fill="#faa40f"/><path d="m132.84,46.9h-31.41c-2.05,0-3.88,1.3-4.55,3.23-1.5,4.3-3.18,9.14-4.92,14.13,0,0,0,0,0,0-.05.15-.11.31-.16.46-.04.11-.07.21-.11.32-5.43,15.58-11.31,32.46-13.55,38.85-.26.8-.56,1.7-.92,2.64-.06.17-.37.95-.94,1.73-.1.13-.19.25-.29.37-.16.2-.37.43-.68.67-.02.01-.03.03-.05.04-.11.08-.22.17-.36.25-.33.2-.62.31-.73.35-.02,0-.03.01-.05.02,0,0,0,0,0,0,0,0-.02,0-.03,0,0,0-.01,0-.02,0-.4.13-.77.19-1.07.21h37.75c.24,0,.49-.03.72-.09.92-.24,2.88-1.09,3.71-4.12l19.61-56.34c.47-1.34-.53-2.73-1.94-2.73Z" fill="#ff7b00"/><path d="m54.25,58.62h0s0,.02,0,.02c0,0,0-.02.01-.02h0s0,0,0,0Z" fill="none"/><path d="m39.89,99.48s.02-.05.02-.07c.02-.07.05-.14.07-.2.04-.11.08-.22.12-.33.05-.15.11-.3.16-.45.07-.19.13-.38.2-.57.08-.23.16-.45.24-.68.09-.26.18-.52.27-.78.1-.29.2-.58.31-.87.11-.32.22-.64.34-.96.12-.35.24-.69.36-1.04.13-.37.26-.74.39-1.11.14-.39.28-.79.41-1.18.14-.41.29-.83.43-1.24.15-.43.3-.86.45-1.29.16-.45.31-.89.47-1.34.16-.46.32-.92.48-1.38.16-.47.33-.94.49-1.41.17-.48.34-.96.5-1.44.17-.48.34-.97.51-1.45.17-.49.34-.98.51-1.47.17-.49.34-.98.52-1.47.17-.49.34-.98.52-1.47l.51-1.46c.17-.48.34-.97.51-1.45.17-.48.33-.95.5-1.43.16-.47.33-.93.49-1.4.16-.45.32-.91.48-1.36.15-.44.31-.88.46-1.32.15-.42.3-.85.45-1.27.14-.41.28-.81.43-1.22.13-.38.27-.77.4-1.15.13-.36.25-.72.38-1.08.12-.34.24-.67.35-1.01.11-.31.22-.62.32-.92.1-.28.2-.56.29-.83.09-.25.17-.49.26-.74.07-.21.15-.42.22-.63.06-.17.12-.35.18-.52.1-.28.19-.58.32-.85h.01s0-.02,0-.02h0s0-.01,0-.01c.03-.05.04-.1.07-.15.26-.57.95-1.19,1.22-1.28l-4.25-14.29c-.53-1.82-2.28-3.07-4.09-3.07h-30c-1.41,0-2.43,1.36-2.02,2.71l16.89,56.76c.7,2.01,2.21,3.06,3.76,3.14,0,0,0,0,0,0,1.61.07,3.25-.91,4.04-2.96Z" fill="#ff000f"/><polygon points="55.56 57.19 55.56 57.19 55.55 57.2 55.56 57.19" fill="#aa0017"/><path d="m67.28,102.2c-.07-.24-.14-.47-.21-.71-.04-.12-.07-.24-.11-.36l-7.24-24.32-5.06-17.01c-.19-.63-.13-1.27.14-1.79.06-.13.14-.24.23-.35.01-.01.02-.03.03-.04.12-.15.27-.28.43-.39.02-.01.04-.02.06-.04h.01c-.28.08-.97.7-1.22,1.27-.03.05-.06.1-.08.15,0,0,0,.02-.01.02-.13.27-.22.56-.32.85-.06.17-.12.35-.18.52-.07.21-.15.42-.22.63-.09.25-.17.49-.26.74-.1.28-.2.56-.29.83-.11.31-.22.62-.32.92-.12.34-.24.67-.35,1.01-.13.36-.25.72-.38,1.08-.13.38-.27.77-.4,1.15-.14.41-.28.81-.43,1.22-.15.42-.3.85-.45,1.27-.15.44-.31.88-.46,1.32-.16.45-.32.91-.48,1.36-.16.47-.33.93-.49,1.4-.17.48-.33.95-.5,1.43-.17.48-.34.97-.51,1.45l-.51,1.46c-.17.49-.34.98-.52,1.47-.17.49-.34.98-.52,1.47-.17.49-.34.98-.51,1.47-.17.48-.34.97-.51,1.45-.17.48-.34.96-.5,1.44-.16.47-.33.94-.49,1.41-.16.46-.32.92-.48,1.38-.16.45-.31.89-.47,1.34-.15.43-.3.86-.45,1.29-.14.41-.29.83-.43,1.24-.14.39-.28.79-.41,1.18-.13.37-.26.74-.39,1.11-.12.35-.24.69-.36,1.04-.11.32-.22.64-.34.96-.1.29-.2.58-.31.87-.09.26-.18.52-.27.78-.08.23-.16.45-.24.68-.07.19-.13.38-.2.57-.05.15-.11.3-.16.45-.04.11-.08.22-.12.33-.02.07-.05.14-.07.2,0,.02-.02.05-.02.07-.79,2.04-2.43,3.03-4.04,2.96,0,0,0,0,0,0-.03,0-.06,0-.09,0h31.6c-.02-.08-.05-.16-.07-.25Z" fill="#aa0017"/><path d="m91.96,64.26c-.27-.98-.54-1.95-.8-2.93-.21-.81-.46-1.58-.9-2.3-.43-.7-1-1.31-1.72-1.71-.2-.11-.41-.21-.63-.28-.34-.12-.92-.21-1.28-.21h-29.75c-.52,0-.96.14-1.32.36,0,0,0,0-.01,0-.02.01-.04.02-.06.04-.16.11-.31.24-.43.39-.01.01-.02.03-.03.04-.09.11-.16.23-.23.35-.27.52-.33,1.15-.14,1.79l5.06,17.01,7.24,24.32.36,1.22,1.38,4.79c.09.25.82,2.23,2.82,2.86.99.31,1.85.16,2.29.04.07-.02.15-.04.24-.07,0,0,.01,0,.02,0,.01,0,.02,0,.04-.01.02,0,.03-.01.05-.02.11-.04.39-.14.73-.35.14-.08.25-.17.36-.25.22-.17.38-.33.5-.45.08-.08.16-.17.24-.26.1-.11.19-.23.29-.37.57-.78.88-1.57.94-1.73.36-.93.66-1.84.92-2.64.14-.44.27-.84.4-1.19.31-.89.62-1.79.94-2.68.39-1.12.78-2.25,1.18-3.37.45-1.29.9-2.59,1.36-3.88.49-1.4.98-2.81,1.47-4.21.51-1.46,1.02-2.91,1.53-4.37.51-1.45,1.01-2.9,1.52-4.34.48-1.38.96-2.76,1.45-4.14.44-1.25.88-2.51,1.31-3.76.37-1.07.75-2.13,1.12-3.2.29-.82.57-1.64.86-2.46.14-.41.29-.82.43-1.23.04-.11.07-.21.11-.32.05-.15.11-.31.16-.46,0,0,0,0,0,0Z" fill="#ffcd00"/></svg>