<svg viewBox="0 0 150 150" xmlns="http://www.w3.org/2000/svg" xmlns:xlink="http://www.w3.org/1999/xlink"><clipPath id="a"><circle cx="75" cy="75" r="75"/></clipPath><g clip-path="url(#a)"><path d="m0 0h150v150h-150z" fill="#00628d"/><path d="m84.34 21.39c-3.58-1.49-7.69.21-9.18 3.79-.09.21-.16.42-.23.64l-30.36 84.98c-1.44 3.74.43 7.95 4.17 9.39.05.02.09.04.14.05l35.1 12.95c3.6 1.44 7.69-.31 9.13-3.9.06-.16.12-.32.17-.48l30.43-85.01c1.43-3.75-.44-7.95-4.19-9.38-.05-.02-.11-.04-.16-.06l-35.03-12.95z" fill="#12100b"/><path d="m117.05 43.26-15.48 43.24c.63-4.74 1.16-9.86 1.3-14.57.82-13.53-1.69-27.05-7.3-39.38l19.9 7.34c1.36.46 2.09 1.93 1.63 3.29-.02.07-.05.15-.08.22m-54.02 35.17c6.07 3.15 11.76 6.99 16.95 11.44 13.09 11.76 12.25 25.03 8.98 23.9l-31.55-11.58c-1.36-.46-2.09-1.93-1.63-3.29.02-.07.05-.15.08-.22l7.16-20.25zm-10.78 30.08c.32-.91 1.33-1.39 2.24-1.07.01 0 .03 0 .04.02l8.92 3.3c.22.07.35.3.29.52-.02.05-.04.1-.08.14-.42.56-.76 1.19-.98 1.86-.24.66-.39 1.36-.42 2.07-.02.23-.22.41-.45.39-.05 0-.1-.02-.14-.04l-8.88-3.26c-.93-.33-1.43-1.34-1.12-2.28l.6-1.65zm13.69 5.97c.84-2.36 3.42-3.59 5.78-2.75.02 0 .03.01.05.02 2.36.9 3.56 3.52 2.7 5.9-.82 2.34-3.38 3.58-5.72 2.76-.02 0-.05-.02-.07-.02-2.39-.89-3.61-3.54-2.74-5.93m11.83 4.39c.22-.67.36-1.37.42-2.07 0-.23.2-.42.43-.41.04 0 .09 0 .13.02l8.92 3.3c.93.33 1.42 1.35 1.09 2.28l-.6 1.65c-.34.91-1.35 1.37-2.26 1.03h-.02l-8.88-3.16c-.24-.08-.37-.34-.29-.58.01-.03.02-.06.04-.09.43-.57.77-1.19 1.02-1.86m13.23 8.39 30.12-84.06c1.04-2.65-.28-5.65-2.93-6.68-.05-.02-.1-.04-.16-.06l-25.13-9.3c-1.75-3.05-3.72-5.97-5.9-8.74l-.18-.21-1.33-1.58c-.68-.6-1.68-.69-2.46-.21l-13.06 8.11c-4.7-3.09-9.78-5.55-15.13-7.3l-1.44-.46c-.88-.3-1.86.05-2.35.84l-25.03 43.56c-.44.82-.13 1.84.69 2.28.11.06.24.11.36.14l1.82.6c10.52 3.32 20.76 7.45 30.64 12.36l-12.36 34.33c-1.14 2.63.07 5.69 2.7 6.83.16.07.33.13.5.19l34.08 12.57c2.58 1.03 5.49-.23 6.52-2.81.04-.1.08-.21.11-.32" fill="#fff"/><path d="m40.36 64.25c18.64 7.02 32.78 14.6 42.12 22.99 5.48 4.68 9.5 10.83 11.58 17.73.69-2 1.15-4.07 1.37-6.18.95-10.53 1.58-30.22-4.25-42.93-7.51-16.39-12.49-20.01-23.27-27.76-4.44-2.93-9.26-5.25-14.32-6.88l-22.81 39.7c3.3 1.09 6.49 2.21 9.58 3.33" fill="#00628d"/><path d="m98.9 70.04c.99-17.66-4.36-35.08-15.09-49.14l-.21-.21-10.32 6.49c9.09 6.63 14.25 11.51 21.34 26.92 2.2 5.07 3.64 10.44 4.28 15.93" fill="#00628d"/><path d="m68.65 120.51c2.33.85 4.91-.34 5.77-2.67 0-.02.02-.05.02-.07.85-2.37-.35-5-2.7-5.9-2.35-.86-4.95.34-5.81 2.69 0 .02-.01.03-.02.05-.85 2.38.37 5.01 2.74 5.9m-5.02-8.95c-.42.56-.76 1.19-.98 1.86-.24.66-.39 1.36-.42 2.07-.02.23-.22.41-.45.39-.05 0-.1-.02-.14-.04l-8.88-3.26c-.93-.33-1.43-1.34-1.12-2.28l.6-1.65c.32-.91 1.33-1.39 2.24-1.07.01 0 .03 0 .04.02l8.92 3.3c.22.07.35.3.29.52-.02.05-.04.1-.08.14m15.09 4.98c-.24-.08-.5.05-.58.29 0 .03-.02.06-.02.1-.04 1.43-.53 2.8-1.4 3.93-.13.22-.06.5.16.63.03.02.06.03.09.04l8.88 3.26c.9.35 1.92-.09 2.27-1v-.02l.6-1.65c.33-.93-.16-1.95-1.09-2.28l-8.92-3.3z" fill="#12100b"/><path d="m101.57 86.5 15.48-43.24c.58-1.31-.02-2.84-1.33-3.42-.07-.03-.14-.06-.22-.08l-19.94-7.2c5.64 12.28 8.19 25.75 7.44 39.24 0 4.7-.67 9.83-1.3 14.57" fill="#12100b"/><path d="m63.31 78.74c-.37.31-.66.73-.81 1.19l-6.81 19.02c-.58 1.31.02 2.84 1.33 3.42.07.03.14.06.22.08l31.59 11.69c3.26 1.12 4.11-12.14-8.98-23.9-5.09-4.43-10.67-8.26-16.64-11.41" fill="#e20a13"/><path d="m59.73 66.49c-9.08-1.42-15.29-9.93-13.87-19.01 1.36-8.72 9.3-14.86 18.08-13.99 8.98 1.34 15.23 9.63 14.04 18.64-1.1 8.99-9.25 15.41-18.25 14.36" fill="#fff"/><path d="m72.16 60.25-5.05-8.07c2.59-.89 4.33-3.33 4.32-6.07 0-3.97-2.98-6.53-8.07-6.53h-9.76v20.67h4.21v-7.3h5.09l4.32 7.3h4.95zm-14.36-17.27h5.09c2.49 0 4 1.23 4 3.26s-1.51 3.51-4.07 3.51h-5.02z" fill="#00678e"/></g></svg>