<?xml version="1.0" encoding="UTF-8"?><svg xmlns="http://www.w3.org/2000/svg" viewBox="0 0 198.43 198.43"><g id="_藍色"><rect x="0" y="0" width="198.43" height="198.43" rx="99.21" ry="99.21" fill="#c3c3c3"/></g><g id="_白色"><path d="m38.79,123.82v-33.41h12c4.3,0,7.57.79,9.81,2.36,2.24,1.58,3.36,3.86,3.36,6.86,0,1.73-.4,3.21-1.19,4.43-.79,1.22-1.97,2.13-3.51,2.71,1.74.46,3.08,1.32,4.02,2.57.93,1.25,1.4,2.78,1.4,4.59,0,3.27-1.04,5.73-3.11,7.38-2.07,1.64-5.14,2.48-9.21,2.51h-13.56Zm8.06-19.48h4.2c1.76-.01,3.01-.34,3.76-.97.75-.63,1.12-1.56,1.12-2.79,0-1.41-.41-2.43-1.22-3.05-.81-.62-2.12-.93-3.92-.93h-3.95v7.73Zm0,5.28v8.01h5.28c1.45,0,2.57-.33,3.35-1,.78-.67,1.17-1.6,1.17-2.81,0-2.78-1.38-4.18-4.15-4.2h-5.64Z" fill="#fff"/><path d="m88.09,117.58h-11.04l-1.93,6.24h-8.61l12.25-33.41h7.57l12.35,33.41h-8.65l-1.95-6.24Zm-9.11-6.22h7.18l-3.6-11.59-3.58,11.59Z" fill="#fff"/><path d="m129.03,123.82h-8.01l-11.84-20.79v20.79h-8.06v-33.41h8.06l11.82,20.79v-20.79h8.03v33.41Z" fill="#fff"/><path d="m145.49,111.39l-3.3,3.63v8.81h-8.06v-33.41h8.06v14.73l2.8-4.25,7.21-10.49h9.96l-11.29,14.78,11.29,18.63h-9.55l-7.11-12.44Z" fill="#fff"/><g opacity=".4"><path d="m99.21,8c50.29,0,91.21,40.92,91.21,91.21s-40.92,91.21-91.21,91.21S8,149.51,8,99.21,48.92,8,99.21,8M99.21,0h0C44.42,0,0,44.42,0,99.21H0C0,154.01,44.42,198.43,99.21,198.43h0c54.79,0,99.21-44.42,99.21-99.21h0C198.43,44.42,154.01,0,99.21,0h0Z" fill="#fff"/></g></g><g id="_黑色"><g opacity=".4"><rect x="34.67" y="45.37" width="7.67" height="7.67"/><rect x="51.53" y="45.37" width="7.67" height="7.67"/><rect x="156.09" y="45.37" width="7.67" height="7.67"/></g><g opacity=".4"><rect x="30.33" y="61.02" width="137.76" height="3.96" rx="1.98" ry="1.98"/></g></g></svg>