<svg viewBox="0 0 200 200" xmlns="http://www.w3.org/2000/svg"><path d="m100 184.8c-46.8 0-84.8-38-84.8-84.8s38-84.8 84.8-84.8 84.8 38 84.8 84.8-38 84.8-84.8 84.8zm0-144.6c-33 0-59.8 26.8-59.8 59.8s26.8 59.8 59.8 59.8 59.8-26.8 59.8-59.8-26.8-59.8-59.8-59.8z" fill="#9b9b9b"/><path d="m72.6 180.2c-21.4-7.3-38.7-22.6-48.7-42.9-10-20.3-11.4-43.3-4.1-64.7l23.7 8.1c-5.2 15.1-4.1 31.3 2.9 45.6s19.2 25.1 34.3 30.2z" fill="#d6d6d6"/><g fill="none" stroke-miterlimit="10" stroke-width="25.0243"><circle cx="362.4" cy="103.6" r="72.3" stroke="#9b9b9b"/><path d="m339.1 172c-37.8-12.9-57.9-54-45-91.8" stroke="#d6d6d6"/></g></svg>