<?xml version="1.0" encoding="UTF-8"?><svg xmlns="http://www.w3.org/2000/svg" viewBox="0 0 198.43 198.43"><g id="_藍色"><rect x="0" y="0" width="198.43" height="198.43" rx="99.21" ry="99.21" fill="#00a3e0"/></g><g id="_白色"><g opacity=".4"><path d="m99.21,8c50.29,0,91.21,40.92,91.21,91.21s-40.92,91.21-91.21,91.21S8,149.51,8,99.21,48.92,8,99.21,8M99.21,0h0C44.42,0,0,44.42,0,99.21H0C0,154.01,44.42,198.43,99.21,198.43h0c54.79,0,99.21-44.42,99.21-99.21h0C198.43,44.42,154.01,0,99.21,0h0Z" fill="#fff"/></g><path d="m117.41,69.33c-4.49-10.31-12.78-18.59-23.08-23.08-5.45-2.38-11.49-3.7-17.83-3.7-24.64,0-44.62,19.97-44.62,44.61,0,24.64,19.98,44.62,44.62,44.62s44.61-19.98,44.61-44.62c0-6.34-1.33-12.37-3.7-17.83Zm-30.01,37.63v4.87c0,2.28-1.84,4.12-4.12,4.12s-4.11-1.84-4.11-4.12v-4.11s-5.49,0-5.49,0v4.11c0,2.28-1.84,4.12-4.12,4.12-2.27,0-4.12-1.84-4.12-4.12v-4.11s-1.36,0-1.36,0c-2.28,0-4.11-1.84-4.11-4.11v-32.91c0-2.28,1.83-4.12,4.11-4.12h1.36s0-4.02,0-4.02c0-2.27,1.85-4.11,4.12-4.11s4.12,1.84,4.12,4.11v4.02s5.49,0,5.49,0v-4.12c0-2.27,1.83-4.11,4.11-4.11s4.12,1.84,4.12,4.11v4.89c1.58.54,3.04,1.41,4.27,2.54,4.96,4.56,5.3,12.29.74,17.26,1.13,1.23,1.99,2.69,2.54,4.27,2.21,6.38-1.18,13.34-7.55,15.54Z" fill="#fff"/><path d="m87.4,95.38c0,2.28-1.84,4.12-4.12,4.12h-15.08s0-8.23,0-8.23h15.08c2.28,0,4.12,1.84,4.12,4.11Z" fill="#fff"/><path d="m87.4,78.93c0,2.27-1.84,4.12-4.12,4.12h-15.08s0-8.24,0-8.24h15.08c2.28,0,4.12,1.84,4.12,4.12Z" fill="#fff"/></g><g id="_黑色"><g opacity=".4"><polygon points="135.61 115.4 127.27 111.69 126.93 111.54 126.59 111.69 118.27 115.4 126.94 101.91 135.61 115.4"/><polygon points="127.27 128.86 135.6 125.16 126.94 138.63 118.28 125.16 126.59 128.86 126.93 129.01 127.27 128.86"/><polygon points="136.27 120.28 136.26 120.28 126.93 124.43 117.61 120.28 117.61 120.28 126.93 116.12 136.27 120.28"/><path d="m126.94,84.67c-.47,0-.94.01-1.4.03.05.82.07,1.64.07,2.46s-.02,1.7-.06,2.54c.46-.02.92-.03,1.39-.03,16.87,0,30.6,13.73,30.6,30.61s-13.73,30.6-30.6,30.6c-13.05,0-24.22-8.2-28.62-19.72-1.48.74-3.01,1.41-4.58,1.99,5.16,13.29,18.1,22.73,33.2,22.73,19.63,0,35.6-15.97,35.6-35.6s-15.97-35.61-35.6-35.61Z"/></g></g></svg>