<?xml version="1.0" encoding="UTF-8"?><svg xmlns="http://www.w3.org/2000/svg" viewBox="0 0 198.43 198.43"><g id="_藍色"><rect x="0" y="0" width="198.43" height="198.43" rx="99.21" ry="99.21" fill="#00a3e0"/></g><g id="_白色"><g opacity=".4"><path d="m99.21,8c50.29,0,91.21,40.92,91.21,91.21s-40.92,91.21-91.21,91.21S8,149.51,8,99.21,48.92,8,99.21,8M99.21,0h0C44.42,0,0,44.42,0,99.21H0C0,154.01,44.42,198.43,99.21,198.43h0c54.79,0,99.21-44.42,99.21-99.21h0C198.43,44.42,154.01,0,99.21,0h0Z" fill="#fff"/></g><path d="m61.32,134.58l3.83-20.95h7.99l-7.09,33.41h-8.35l-4.47-19.05-4.38,19.05h-8.33l-7.11-33.41h8.01l3.83,20.95,4.59-20.95h6.84l4.66,20.95Z" fill="#fff"/><path d="m89.16,147.04c-.28-.5-.52-1.25-.73-2.23-1.42,1.79-3.41,2.69-5.97,2.69-2.34,0-4.33-.71-5.97-2.12-1.64-1.42-2.46-3.19-2.46-5.34,0-2.69.99-4.73,2.98-6.1,1.99-1.38,4.88-2.07,8.68-2.07h2.39v-1.31c0-2.29-.99-3.44-2.96-3.44-1.84,0-2.75.91-2.75,2.72h-7.73c0-2.4,1.02-4.35,3.06-5.85,2.04-1.5,4.65-2.25,7.81-2.25s5.67.77,7.5,2.32c1.84,1.55,2.78,3.67,2.82,6.36v10.99c.03,2.28.38,4.02,1.06,5.23v.39h-7.73Zm-4.84-5.05c.96,0,1.76-.21,2.4-.62.63-.41,1.09-.88,1.37-1.4v-3.97h-2.25c-2.69,0-4.04,1.21-4.04,3.63,0,.7.24,1.27.71,1.71.47.44,1.08.65,1.81.65Z" fill="#fff"/><path d="m108.28,147.04h-7.76v-35.25h7.76v35.25Z" fill="#fff"/><path d="m121.2,147.04h-7.76v-35.25h7.76v35.25Z" fill="#fff"/><path d="m137.97,147.5c-3.81,0-6.89-1.14-9.25-3.41-2.36-2.27-3.53-5.23-3.53-8.87v-.64c0-2.54.47-4.78,1.41-6.72.94-1.94,2.31-3.45,4.12-4.51,1.8-1.06,3.95-1.59,6.43-1.59,3.49,0,6.24,1.08,8.26,3.25,2.02,2.17,3.03,5.18,3.03,9.05v3.01h-15.38c.28,1.39.88,2.49,1.81,3.28.93.8,2.14,1.19,3.63,1.19,2.45,0,4.36-.86,5.74-2.57l3.54,4.18c-.96,1.33-2.33,2.39-4.1,3.18-1.77.79-3.67,1.18-5.7,1.18Zm-.87-19.78c-2.26,0-3.61,1.5-4.04,4.5h7.8v-.6c.03-1.24-.28-2.2-.94-2.88-.66-.68-1.6-1.02-2.82-1.02Z" fill="#fff"/><path d="m160.56,116.04v6.17h4.09v5.37h-4.09v11.36c0,.93.17,1.58.51,1.95.34.37,1,.55,2,.55.76,0,1.41-.05,1.93-.14v5.53c-1.39.44-2.85.67-4.36.67-2.66,0-4.63-.63-5.9-1.88-1.27-1.25-1.91-3.16-1.91-5.71v-12.32h-3.17v-5.37h3.17v-6.17h7.73Z" fill="#fff"/></g><g id="_黑色"><g opacity=".4"><path d="m98.02,102.58c-5.76-.04-10.89-1.4-15.39-4.08-4.51-2.68-7.91-6.41-10.21-11.19-2.3-4.78-3.21-10.05-2.74-15.81l.18-1.67c1.07-10.6,4.75-18.98,11.04-25.15,6.29-6.17,14-9.14,23.13-8.9,5.51.08,10.24,1.48,14.17,4.2,3.93,2.72,6.81,6.48,8.63,11.27,1.82,4.79,2.42,10.17,1.78,16.13l-1.13,8.17h-38.34c.08,3.37,1.03,6.11,2.86,8.22,1.82,2.11,4.48,3.21,7.98,3.33,5.67.16,10.77-2.02,15.3-6.55l8.22,10.87c-2.42,3.44-5.81,6.15-10.15,8.1-4.35,1.96-9.1,2.98-14.26,3.06h-1.07Zm4.76-51.32c-2.78-.08-5.19.79-7.24,2.61s-3.82,4.86-5.33,9.12h19.58l.36-1.72c.24-1.38.28-2.68.12-3.91-.67-3.95-3.17-5.98-7.5-6.1Z"/></g></g></svg>