<?xml version="1.0" encoding="UTF-8"?><svg xmlns="http://www.w3.org/2000/svg" viewBox="0 0 198.43 198.43"><g isolation="isolate"><g id="_藍色"><rect x="0" y="0" width="198.43" height="198.43" rx="99.21" ry="99.21" fill="#00a3e0"/><polygon points="98.97 65.85 99.45 65.85 98.97 66.11 98.97 65.85" fill="#2f65bc"/><polygon points="99.45 65.85 99.45 66.11 98.97 65.85 99.45 65.85" fill="#2f65bc"/><polygon points="35.32 73.36 34.94 73.74 34.94 73.36 35.32 73.36" fill="#2f65bc"/><polygon points="166.18 73.36 166.18 73.74 165.8 73.36 166.18 73.36" fill="#2f65bc"/></g><g id="_白色"><g opacity=".4"><path d="m99.21,8c50.29,0,91.21,40.92,91.21,91.21s-40.92,91.21-91.21,91.21S8,149.51,8,99.21,48.92,8,99.21,8M99.21,0h0C44.42,0,0,44.42,0,99.21H0C0,154.01,44.42,198.43,99.21,198.43h0c54.79,0,99.21-44.42,99.21-99.21h0C198.43,44.42,154.01,0,99.21,0h0Z" fill="#fff"/></g><path d="m79,102.61h-12.99v13.31h-8.06v-33.41h22.35v6.22h-14.3v7.69h12.99v6.2Z" fill="#fff"/><path d="m91.72,104.59v11.34h-8.06v-33.41h13.33c2.56,0,4.82.47,6.78,1.41,1.97.94,3.49,2.28,4.57,4.02,1.08,1.74,1.62,3.71,1.62,5.91,0,3.26-1.17,5.86-3.5,7.81-2.33,1.95-5.53,2.93-9.6,2.93h-5.14Zm0-6.22h5.28c1.56,0,2.75-.39,3.57-1.17.82-.78,1.23-1.88,1.23-3.3,0-1.56-.42-2.81-1.26-3.74-.84-.93-1.99-1.41-3.44-1.42h-5.37v9.64Z" fill="#fff"/><path d="m125.55,93.62l5.46-11.11h9.2l-9.34,16.57,9.59,16.84h-9.29l-5.62-11.31-5.62,11.31h-9.27l9.57-16.84-9.32-16.57h9.18l5.46,11.11Z" fill="#fff"/></g><g id="_黑色"><path d="m173.61,100.7c0-37.21-27.47-68.13-63.19-73.55-.8-5.48-5.51-9.68-11.2-9.68s-10.4,4.21-11.2,9.68c-35.73,5.42-63.19,36.34-63.19,73.55,0,12.17,2.96,23.65,8.16,33.8-2.24,2.07-3.64,5.02-3.64,8.31,0,6.26,5.08,11.34,11.34,11.34,1.98,0,3.84-.51,5.46-1.4,13.51,13.78,32.31,22.35,53.09,22.35s39.4-8.49,52.9-22.15c1.53.76,3.24,1.2,5.06,1.2,6.26,0,11.34-5.08,11.34-11.34,0-3.09-1.24-5.89-3.25-7.94,5.32-10.24,8.35-21.86,8.35-34.17Zm-123.75,48.73c1.34-1.86,2.14-4.14,2.14-6.62,0-6.26-5.08-11.34-11.34-11.34-1.17,0-2.3.18-3.37.51-4.77-9.41-7.48-20.03-7.48-31.28,0-34.58,25.43-63.33,58.56-68.55,1.43,4.63,5.74,7.99,10.83,7.99s9.4-3.36,10.83-7.99c33.14,5.22,58.56,33.97,58.56,68.55,0,11.32-2.74,22.01-7.57,31.46-1.21-.44-2.5-.69-3.86-.69-6.26,0-11.34,5.08-11.34,11.34,0,2.63.9,5.04,2.4,6.96-12.56,12.55-29.9,20.33-49.02,20.33s-36.76-7.92-49.35-20.67Z" mix-blend-mode="darken" opacity=".4"/></g></g></svg>